<?xml version="1.0" encoding="UTF-8" standalone="no"?>
<!-- Generator: Adobe Illustrator 16.0.0, SVG Export Plug-In . SVG Version: 6.00 Build 0)  -->

<svg
   xmlns:dc="http://purl.org/dc/elements/1.1/"
   xmlns:cc="http://creativecommons.org/ns#"
   xmlns:rdf="http://www.w3.org/1999/02/22-rdf-syntax-ns#"
   xmlns:svg="http://www.w3.org/2000/svg"
   xmlns="http://www.w3.org/2000/svg"
   xmlns:sodipodi="http://sodipodi.sourceforge.net/DTD/sodipodi-0.dtd"
   xmlns:inkscape="http://www.inkscape.org/namespaces/inkscape"
   version="1.1"
   id="svg2"
   sodipodi:docname="wikipedia.svg"
   inkscape:version="0.91 r13725"
   x="0px"
   y="0px"
   width="150"
   height="150"
   viewBox="-1 -14.374 150 150"
   enable-background="new -1 -14.374 288 120.541"
   xml:space="preserve"
   inkscape:export-filename="/home/m/auricio/make/firefox/wikipedia/extension/icons/icon@2x.png"
   inkscape:export-xdpi="57.599998"
   inkscape:export-ydpi="57.599998"><metadata
     id="metadata7596"><rdf:RDF><cc:Work
         rdf:about=""><dc:format>image/svg+xml</dc:format><dc:type
           rdf:resource="http://purl.org/dc/dcmitype/StillImage" /><dc:title /></cc:Work></rdf:RDF></metadata><defs
     id="defs7594" /><sodipodi:namedview
     inkscape:current-layer="g10"
     inkscape:window-maximized="0"
     inkscape:window-y="34"
     inkscape:window-x="14"
     fit-margin-bottom="0"
     fit-margin-right="0"
     inkscape:window-height="720"
     inkscape:window-width="1338"
     inkscape:pageshadow="2"
     inkscape:pageopacity="0"
     inkscape:cy="79.467507"
     inkscape:cx="29.818314"
     inkscape:zoom="2.9941331"
     fit-margin-left="0"
     fit-margin-top="0"
     showgrid="false"
     guidetolerance="10"
     gridtolerance="10"
     objecttolerance="10"
     borderopacity="1"
     pagecolor="#ffffff"
     bordercolor="#666666"
     id="namedview4" /><g
     id="g10"
     transform="matrix(1.25,0,0,-1.25,9.9591569,179.71156)"
     inkscape:groupmode="layer"
     inkscape:label="ink_ext_XXXXXX"><path
       d="m -0.88829052,129.61804 -0.20039698,-0.2004 0,-1.97517 c 0,-0.54245 0.25913398,-0.82923 0.80043498,-0.82923 2.57866702,-0.2718 4.32119602,-0.81195 5.23680102,-1.65961 0.950156,-0.81425 1.870368,-2.4324 2.719174,-4.80606 L 34.822614,63.376595 c 0.577004,-1.628511 1.357859,-2.461193 2.374815,-2.461193 1.018106,0 1.869216,0.831531 2.546419,2.461193 L 50.732261,86.153857 61.634296,63.376595 c 0.577,-1.628511 1.3855,-2.461193 2.40361,-2.461193 1.01695,0 1.83927,0.831531 2.51762,2.461193 l 27.1549,56.313745 c 0.8488,2.20436 1.92104,3.88701 3.1764,5.00762 1.2542,1.15285 3.167184,1.78168 5.780404,1.91758 0.57585,0 0.88681,0.28678 0.88681,0.82923 l 0,1.97518 -0.22918,0.20039 -9.614434,-0.20039 c -2.71457,0 -6.52671,0.0645 -11.44565,0.20039 l -0.20039,-0.20039 0,-1.97518 c 0,-0.54245 0.28677,-0.82923 0.82923,-0.82923 l 1.6596,-0.0864 c 2.10301,-0.10135 3.56453,-0.58277 4.37763,-1.43042 0.84881,-0.81426 0.9133,-2.16866 0.2004,-4.03443 l -22.26015,-45.642047 -0.40194,0 -10.70164,21.175241 11.13122,23.091676 c 0.84766,2.20436 1.89225,3.88701 3.14761,5.00761 1.25536,1.15286 3.19713,1.78169 5.80805,1.91759 0.577,0 0.85802,0.28678 0.85802,0.82923 l 0,1.97517 -0.2004,0.2004 -9.61443,-0.2004 c -2.71457,0 -6.52786,0.0645 -11.44564,0.2004 l -0.2004,-0.2004 0,-1.97517 c 0,-0.54245 0.25914,-0.82923 0.80159,-0.82923 l 1.6884,-0.0864 c 2.10301,-0.10135 3.56337,-0.58277 4.37763,-1.43042 0.8488,-0.81426 0.91215,-2.16867 0.20039,-4.03443 l -9.30001,-19.05719 -10.015223,19.77361 c -0.577004,1.56056 -0.577004,2.6282 0,3.20405 0.610404,0.6104 2.165205,1.09182 4.606819,1.43157 l 1.774776,0.20039 c 0.542453,0.10135 0.801587,0.38813 0.801587,0.82923 l 0,1.97518 -0.200397,0.20039 -11.846433,-0.20039 c -2.714568,0 -6.789299,0.0645 -12.218434,0.20039 l -0.200397,-0.20039 0,-1.97518 c 0,-0.54245 0.259134,-0.82923 0.801586,-0.82923 2.578667,-0.2718 4.320044,-0.81195 5.236801,-1.6596 0.950157,-0.81311 1.869217,-2.43241 2.718023,-4.80607 l 13.562473,-28.357268 -7.982464,-16.368025 -0.400793,0 -23.463678,46.356103 c -0.577004,1.56056 -0.577004,2.6282 0,3.20405 0.610403,0.6104 2.13526,1.09182 4.578026,1.43157 l 1.803569,0.2004 c 0.542453,0.10135 0.800435,0.38812 0.800435,0.82922 l 0,1.97518 -0.199245,0.20039 -11.846434,-0.2027 c -2.7145675,0 -6.7916015,0.0633 -12.21843352,0.19925 z"
       inkscape:connector-curvature="0"
       id="path2834"
       style="fill:#c3c3c3;fill-opacity:1" /></g></svg>